<?xml version="1.0" encoding="UTF-8"?>
<!-- Created with Inkscape (http://www.inkscape.org/) -->
<svg width="18.871922mm" height="18.871922mm" version="1.1" viewBox="0 0 18.871922 18.871922" xmlns="http://www.w3.org/2000/svg">
 <g transform="translate(-65.898702,-19.356867)">
  <g transform="matrix(.89765654 0 0 .89765654 -4.379864 -28.354992)">
   <path d="m87.162885 67.254574 2.927563-0.378442" color="#000000" fill="#fff" opacity=".433306" stroke-width=".382457" style="-inkscape-stroke:none"/>
   <path d="m88.535496 59.050576c-1.949294 0-3.524332 1.564752-3.524332 3.503147v0.0047l5.29e-4 0.0047c0.0086 0.156128 0.0273 0.304866 0.05426 0.447518 0.0759-0.01828 0.155824-0.0279 0.239263-0.0279 0.03177 0 0.06317 0.0013 0.09405 0.0041-0.02781-0.138763-0.04819-0.283596-0.05685-0.437184 0.0024-1.758249 1.42221-3.168798 3.193087-3.168798h0.132292c1.771748 0 3.192153 1.411928 3.193083 3.171383-4e-3 0.150567-0.0263 0.303374-0.0636 0.456303h0.0584l0.15451 0.441317c0.10651-0.28843 0.17506-0.587795 0.18191-0.891937v-0.0042c0-1.938396-1.57504-3.503147-3.524333-3.503147zm-3.23546 4.511871c-0.03345 0-0.0564 0.0035-0.07545 0.0083 0.07139 0.187537 0.156681 0.36131 0.251148 0.521931 0.01513-0.04868 0.02635-0.113692 0.02635-0.202055 0-0.143833-0.02972-0.231465-0.05943-0.271301-0.0297-0.03984-0.05719-0.05684-0.142627-0.05684zm6.179982 0.248047c-0.0376 0.07022-0.0779 0.139354-0.11885 0.207738v0.601562c0.0939-0.129238 0.18589-0.264951 0.27233-0.406178zm-5.424475 0.541568c-0.03411 0.07338-0.07757 0.140843-0.131773 0.199988-0.02334 0.02548-0.04854 0.04817-0.07493 0.06976 0.09477 0.114248 0.191625 0.21984 0.286806 0.316778 0.25486 0.259564 0.499658 0.46286 0.665075 0.618567 0.08271 0.07785 0.145331 0.144629 0.176218 0.189653 0.02143 0.03125 0.02352 0.04288 0.02429 0.04237l-0.0041 0.01394v1.659329c0 0.264456-0.0013 0.466003 0.02429 0.636138 0.02572 0.170135 0.09085 0.324966 0.22324 0.422195 0.132392 0.09723 0.297346 0.129313 0.511598 0.146762 0.214252 0.01746 0.485701 0.01707 0.845426 0.01707 0.359124 0 0.630055 5.29e-4 0.844394-0.01707 0.214336-0.01773 0.380693-0.05104 0.513146-0.149863 0.13245-0.09882 0.196387-0.254788 0.222208-0.427363 0.02582-0.172574 0.02479-0.377994 0.02479-0.647506v-1.546159c0.08057-0.06997 0.487387-0.427929 0.943097-0.998387 0.0315-0.03945 0.063-0.07986 0.0946-0.120925h-0.42375c-0.456 0.553802-0.886769 0.921909-0.886769 0.921909l-0.05839 0.04961v0.962216l-2.546615 0.329178v-1.20251c0.01677-0.105571-0.02593-0.201565-0.07803-0.277503-0.05701-0.08311-0.132802-0.159234-0.222207-0.243395-0.160841-0.1514-0.368541-0.327562-0.583946-0.539504h-0.274918v-0.289388c-0.03836-0.04392-0.07624-0.08928-0.113689-0.135909zm3.819406 2.744536v0.247012l-2.544548 0.329179c-7.94e-4 -0.06778-0.0021-0.129635-0.0021-0.210322v-0.03617zm-0.0026 0.633553c-0.0024 0.125465-0.0071 0.234569-0.0186 0.31161-0.0195 0.130315-0.04533 0.175776-0.09302 0.211355-0.04769 0.03558-0.15145 0.06955-0.341579 0.08527-0.190135 0.01572-0.458349 0.01601-0.817523 0.01601-0.359746 0-0.628119-5.29e-4 -0.818555-0.01601-0.190437-0.01551-0.294637-0.04886-0.342098-0.08372-0.04656-0.03419-0.07185-0.0777-0.09095-0.199469z" color="#000000" fill="#fff" opacity=".433" stroke-width=".224354" style="-inkscape-stroke:none"/>
   <path d="m88.951083 60.52855c1.033093-0.148351 1.785775 1.049918 1.541866 1.95823" fill="none" opacity=".433" stroke="#fff" stroke-width=".382451"/>
   <g fill="#fff">
    <path d="m91.531998 56.650726-0.0734 0.176541s-0.14538 0.349695-0.30296 0.735761c-0.15758 0.386065-0.32391 0.797324-0.37948 0.963061l-0.0608 0.181242 0.36259 0.121612 0.0608-0.181349c0.0414-0.123519 0.21391-0.555405 0.37093-0.940086 0.15702-0.384682 0.302-0.73341 0.302-0.73341l0.0734-0.17654z" opacity=".433306" stroke-width=".0688221"/>
    <path d="m92.103697 59.366725c0.20442-0.22677 1.29469-1.277211 1.29469-1.277211" opacity=".433306" stroke="#fff" stroke-linecap="square" stroke-width=".382457"/>
    <path d="m92.662249 60.520735c0.290542-0.09476 1.760633-0.462319 1.760633-0.462319" opacity=".433306" stroke="#fff" stroke-linecap="square" stroke-width=".382457"/>
    <g stroke-width=".058756">
     <path d="m83.855689 62.949969q-0.26852 0-0.422333 0.189902-0.153812 0.189903-0.153812 0.524182 0 0.349894 0.147294 0.529388 0.148599 0.179499 0.428851 0.179499 0.121225 0 0.234629-0.02341 0.113404-0.02471 0.235933-0.06243v0.266648q-0.224202 0.08455-0.508363 0.08455-0.418422 0-0.642624-0.252337-0.224201-0.253636-0.224201-0.724492 0-0.296564 0.10819-0.518985 0.109494-0.222417 0.315446-0.340785 0.205952-0.118364 0.483597-0.118364 0.291983 0 0.539647 0.122266l-0.112101 0.258843q-0.09646-0.04553-0.204648-0.07934-0.106887-0.03512-0.225505-0.03512z"/>
     <path d="m85.982994 63.890377q0 0.352492-0.181186 0.5502-0.181186 0.197707-0.504453 0.197707-0.202042 0-0.357158-0.09105t-0.238539-0.261441q-0.08342-0.17039-0.08342-0.395415 0-0.349889 0.179882-0.546297 0.179883-0.196404 0.50706-0.196404 0.312839 0 0.495328 0.20161 0.18249 0.200306 0.18249 0.541091zm-1.049314 0q0 0.498173 0.368889 0.498173 0.364979 0 0.364979-0.498173 0-0.492967-0.367586-0.492967-0.192917 0-0.280251 0.127468-0.08603 0.127473-0.08603 0.365499z"/>
     <path d="m87.603239 64.612271h-0.307625v-0.884479q0-0.166493-0.06778-0.248435-0.06648-0.08195-0.212469-0.08195-0.194221 0-0.284162 0.114461-0.08994 0.114461-0.08994 0.383707v0.716693h-0.306325v-1.438582h0.239843l0.04301 0.188604h0.01564q0.06517-0.102759 0.185097-0.158688 0.119921-0.05593 0.265913-0.05593 0.518791 0 0.518791 0.526785z"/>
     <path d="m88.610841 64.638284q-0.327177 0-0.497935-0.189902-0.169454-0.191207-0.169454-0.547597 0-0.3629 0.177275-0.558005 0.178579-0.195104 0.514881-0.195104 0.228112 0 0.410601 0.08455l-0.09255 0.245831q-0.194221-0.07544-0.32066-0.07544-0.374103 0-0.374103 0.49557 0 0.241934 0.09255 0.3642 0.09385 0.120962 0.273734 0.120962 0.204648 0 0.387138-0.101455v0.266648q-0.08212 0.04812-0.175972 0.06894-0.09255 0.02081-0.225505 0.02081z"/>
     <path d="m89.980815 64.638284q-0.336301 0-0.526612-0.195104-0.189007-0.196408-0.189007-0.539796 0-0.352488 0.175972-0.554098t0.483597-0.20161q0.285466 0 0.45101 0.172994 0.165543 0.172993 0.165543 0.476057v0.165189h-0.960675q0.0065 0.209414 0.113403 0.322576 0.106887 0.111858 0.301108 0.111858 0.127742 0 0.237236-0.02341 0.110797-0.02471 0.237236-0.08064v0.248434q-0.1121 0.05333-0.226808 0.07544-0.114707 0.02211-0.262003 0.02211zm-0.05605-1.259082q-0.145992 0-0.234629 0.09235-0.08733 0.09235-0.10428 0.269246h0.654355q-0.0026-0.178199-0.08603-0.269246-0.08342-0.09235-0.229416-0.09235z"/>
     <path d="m91.195678 64.612271h-0.30633v-1.438582h0.30633zm-0.32458-1.81969q0-0.08194 0.0443-0.126169 0.0456-0.04422 0.12905-0.04422 0.0808 0 0.12514 0.04422 0.0456 0.04423 0.0456 0.126169 0 0.07804-0.0456 0.12357-0.0443 0.04422-0.12514 0.04422-0.0834 0-0.12905-0.04422-0.0443-0.04553-0.0443-0.12357z"/>
     <path d="m91.962128 64.612271-0.54747-1.438582h0.32327l0.29329 0.836356q0.0756 0.210714 0.0912 0.340785h0.0104q0.0117-0.09365 0.0912-0.340785l0.29329-0.836356h0.32587l-0.55007 1.438582z"/>
     <path d="m93.691868 64.638284q-0.3363 0-0.52661-0.195104-0.18901-0.196408-0.18901-0.539796 0-0.352488 0.17597-0.554098t0.4836-0.20161q0.28547 0 0.45101 0.172994 0.16554 0.172993 0.16554 0.476057v0.165189h-0.96067q7e-3 0.209414 0.1134 0.322576 0.10689 0.111858 0.30111 0.111858 0.12774 0 0.23723-0.02341 0.1108-0.02471 0.23724-0.08064v0.248434q-0.1121 0.05333-0.22681 0.07544t-0.262 0.02211zm-0.056-1.259082q-0.14599 0-0.23463 0.09235-0.0873 0.09235-0.10428 0.269246h0.65436q-3e-3 -0.178199-0.086-0.269246-0.0834-0.09235-0.22941-0.09235z"/>
    </g>
   </g>
  </g>
 </g>
</svg>
