<?xml version="1.0" encoding="UTF-8"?>
<svg width="18.871918mm" height="18.871918mm" version="1.1" viewBox="0 0 18.871918 18.871918" xmlns="http://www.w3.org/2000/svg">
 <g transform="translate(-96.663642,-92.324997)">
  <g transform="matrix(.20378405 0 0 .20378405 75.17876 70.674366)" fill="#fff">
   <path transform="scale(.26458333)" d="m642.58203 508.82227c-0.41828-8e-3 -0.83973 8e-3 -1.26172 0.0488-2.5319 0.23698-5.09286 1.32974-7.17383 3.40625l-44.10156 44.00782c0.32693 0.19729 0.63409 0.43256 0.91211 0.70703 1.12192 1.09591 1.60547 2.67827 1.60547 4.10742 0 0.19918-0.0331 0.40042-0.0547 0.60156l31.875-31.80664c2.96079 5.06519 7.09144 8.54991 11.33008 11.27539l-23.61523 23.56446h7.88867l33.36523-33.29297c2.77062-2.76473 3.7881-6.38051 3.36328-9.64844-0.42478-3.26786-2.09526-6.21213-4.38086-8.49609-2.28559-2.28386-5.2342-3.95781-8.50976-4.38282-0.40944-0.0533-0.82391-0.0842-1.24219-0.0918zm-0.13867 5.55664c0.2177 8e-3 0.43855 0.031 0.66211 0.0586 1.7884 0.23169 3.75466 1.26939 5.28125 2.79492 1.52663 1.52553 2.56462 3.49073 2.79687 5.27735 0.22982 1.76921-0.14116 3.3364-1.73242 4.94726-4.71773-2.79016-8.80125-5.98144-11.4414-11.16211l0.0801-0.0801c1.43301-1.42987 2.82905-1.89709 4.35352-1.83593zm-9.16797 6.64062c3.03664 5.00214 7.22471 8.42987 11.48828 11.11914l-4.37109 4.36133c-4.67566-2.81187-8.69359-6.0696-11.25-11.35742zm-46.51367 39.99414c2e-3 0.0278 4e-3 0.0183 4e-3 0.0859 0 0.042-2e-3 0.0341-4e-3 0.0488 0.0265 0 0.0342-8e-3 0.13476-8e-3 0.0684 0 0.0493 9.1e-4 0.0879 0-4e-5 -0.0227-2e-3 -7e-3 -2e-3 -0.041 0-0.0676 7.6e-4 -0.0474 0-0.0859-0.0386-9.1e-4 -0.0187 0-0.0859 0zm-4.64063 3.17774-0.54297 0.54297h0.90821c-0.1372-0.17084-0.24883-0.35872-0.36524-0.54297zm-0.62695 0.62695-1.63867 1.63476 1.63867 0.74219zm0 3.64844-3.18555 7.40039 3.18555-3.17578zm23.51953 4.70508c-0.95516 0-1.1558 0.17392-1.33008 0.36328-0.17159 0.19426-0.42578 0.6528-0.42578 1.82812 0 1.03612 0.2139 1.38145 0.39649 1.57617 0.19313 0.19843 0.4273 0.37305 1.35937 0.37305 0.99636 0 1.2114-0.19231 1.32422-0.3125 0.11263-0.12019 0.36524-0.52168 0.36523-1.67969 0-1.1376-0.24392-1.59672-0.42382-1.80078l-0.0195-0.0176-0.0156-0.0195c-0.12208-0.14362-0.2549-0.30859-1.23047-0.30859zm-32.88867 0.99609-0.34961 0.34765c0.24491 0.10961 0.45627 0.20908 0.88672 0.375h2e-3c1.85764 0.71717 3.2966 1.37965 4.48242 2.13672l0.79297-0.78906-2.36328-0.97656c-1.34286-0.554-2.47583-0.88746-3.45117-1.09375zm22.76758 7.73633-2.6582 2.64843v6.82032c0.25511-0.41167 0.42336-0.87574 0.75195-1.23438l0.0156-0.0156 0.0117-0.0156c0.42149-0.44644 0.96198-0.75059 1.46485-1.10156-0.35944-0.80731-0.62305-1.66388-0.62305-2.55664 0-1.4318 0.47095-2.92387 1.39648-4.0586 0.0151-0.0189 0.0412-0.0302 0.0566-0.0469-0.13469-0.15012-0.27678-0.29406-0.41601-0.43945zm-30.96289 0.43945-1.53711 1.53711c2.36833 1.04954 4.47272 1.54839 6.30859 1.57617l0.73242-0.73242c-0.62233-0.30198-1.3924-0.64636-2.42773-1.04688-1.13798-0.43997-2.16024-0.87276-3.07617-1.33398zm-5.82031 9.96094-1.5879 0.75586c-1.45723 0.69316-2.95989 1.1967-4.49218 1.49218-0.12964 0.0265-0.26661 0.0414-0.39844 0.0645l-28.84766 28.78515-11.71289 28.15235h-22.28515v6.44527h169.39062v-6.44531h-145.00586l28.7207-8.89453 48.22852-48.125h-7.89062l-39.92969 39.84765c-0.67826-2.50375-1.73639-4.82339-3.40625-6.81054-1.8826-2.24031-4.52371-3.82305-7.78711-4.60352l29.42383-29.36133c-0.29821-0.12359-0.59175-0.25197-0.87696-0.39453l-1.54296-0.76953zm-31.55274 36.54883c3.94831 0.0253 5.95645 1.1442 7.4043 2.86718 1.26171 1.50144 2.12363 3.81945 2.60742 6.75977l-16.0918 4.98242z" opacity=".433" stroke-width=".921728"/>
   <path d="m155.28331 147.69793c-0.24789 0-0.43974 0.0657-0.57531 0.19708-0.13169 0.13142-0.19746 0.31888-0.19746 0.56236 0 0.23192 0.0658 0.41522 0.19746 0.5505 0.13557 0.1314 0.32742 0.19708 0.57531 0.19708 0.24014 0 0.42605-0.0657 0.55774-0.19708 0.13557-0.13528 0.20316-0.31858 0.20316-0.5505 0-0.24348-0.0676-0.43094-0.20316-0.56236-0.13169-0.13139-0.3176-0.19708-0.55774-0.19708zm-21.92661 0.39417v8.47599h2.37622c1.46411 0 2.58548-0.36896 3.36401-1.10718 0.77854-0.74207 1.1677-1.81292 1.1677-3.21207 0-1.31795-0.37593-2.34048-1.12735-3.0671s-1.8029-1.08964-3.15468-1.08964zm1.38843 1.15928h1.20282c1.90179 0 2.85231 1.01476 2.85231 3.04391 0 2.07164-1.02224 3.10736-3.06734 3.10736h-0.98779zm9.75502 0.78882c-0.9141 0-1.6326 0.29915-2.1555 0.89823-0.52289 0.59909-0.78463 1.4223-0.78463 2.46969 0 1.02037 0.28091 1.8226 0.84254 2.40623 0.5655 0.57973 1.34795 0.86981 2.34726 0.86981 0.43769 0 0.82685-0.0328 1.1677-0.0985s0.67795-0.17792 1.01106-0.33639v-1.10764c-0.37571 0.16621-0.72835 0.28615-1.05758 0.35958-0.32535 0.0696-0.67751 0.10423-1.0571 0.10423-0.57712 0-1.02476-0.16601-1.34237-0.4984-0.31761-0.33624-0.48617-0.81557-0.50553-1.43784h4.28203v-0.73621c0-0.90056-0.24573-1.60793-0.73764-2.12197s-1.16199-0.77079-2.01024-0.77079zm6.36774 0c-0.76303 0-1.36735 0.1523-1.81277 0.45764-0.44156 0.30146-0.66265 0.72699-0.66265 1.27584 0 0.45607 0.12972 0.82685 0.38923 1.11286 0.26339 0.286 0.7654 0.57194 1.50519 0.85797 0.37959 0.14687 0.67556 0.27822 0.88859 0.39416 0.21303 0.11595 0.36605 0.22813 0.45901 0.33637 0.093 0.10823 0.13956 0.24368 0.13956 0.406 0 0.5063-0.42023 0.75944-1.26074 0.75944-0.65071 0-1.35368-0.17423-2.10897-0.52209v1.17728c0.51902 0.25896 1.20646 0.38849 2.06245 0.38849 0.85213 0 1.50668-0.16647 1.96373-0.49886 0.45705-0.33626 0.68543-0.81741 0.68543-1.44354 0-0.3092-0.058-0.57371-0.17421-0.79401-0.11619-0.22418-0.29433-0.42167-0.53448-0.59173-0.24014-0.17006-0.62566-0.35749-1.1563-0.56236-0.63135-0.24349-1.04199-0.43458-1.23178-0.57371-0.18592-0.13914-0.27864-0.30925-0.27864-0.51024 0-0.40969 0.3604-0.61446 1.08084-0.61446 0.47254 0 1.05538 0.14273 1.7487 0.42876l0.44144-1.02617c-0.67395-0.30534-1.38833-0.45764-2.14363-0.45764zm9.22007 0c-0.81339 0-1.441 0.19109-1.88256 0.57371-0.43768 0.38264-0.65647 0.92169-0.65647 1.61741 0 0.43286 0.10278 0.81189 0.30806 1.13653 0.20916 0.32082 0.48049 0.55249 0.81359 0.69548-0.26725 0.16233-0.46869 0.32652-0.60426 0.49272-0.13556 0.16621-0.20363 0.36914-0.20363 0.60877 0 0.18939 0.0585 0.37136 0.17468 0.5453 0.12007 0.17006 0.27079 0.29365 0.45284 0.37096-0.44931 0.10435-0.79964 0.28998-1.05141 0.55665-0.24789 0.27056-0.37214 0.60302-0.37214 0.99726 0 0.57201 0.23068 1.01258 0.6916 1.32177 0.46092 0.30922 1.12918 0.46383 2.00455 0.46383 1.13487 0 2.00227-0.19749 2.60263-0.59173 0.60036-0.39421 0.90046-0.95427 0.90046-1.68089 0-0.56816-0.18361-1.00325-0.55157-1.30473-0.36797-0.30146-0.90651-0.45197-1.61532-0.45197h-1.12118c-0.36796 0-0.62193-0.0369-0.76137-0.11039-0.13557-0.0734-0.20316-0.18333-0.20316-0.3302 0-0.24349 0.14707-0.45648 0.44144-0.63814 0.16656 0.0309 0.35246 0.0464 0.55774 0.0464 0.80177 0 1.43121-0.18927 1.88826-0.56804 0.45705-0.37878 0.68543-0.89872 0.68543-1.55961 0-0.22032-0.0329-0.4287-0.0987-0.62584-0.0658-0.1971-0.14897-0.3636-0.24968-0.49885l1.09793-0.20279v-0.74806h-2.22528c-0.1007-0.0271-0.25142-0.0521-0.45283-0.0753-0.19754-0.027-0.38757-0.0403-0.56961-0.0403zm7.77943 0c-0.43381 0-0.82892 0.083-1.18526 0.24918-0.35634 0.16621-0.63132 0.40198-0.82499 0.70732h-0.0698l-0.1913-0.84092h-1.06944v6.41231h1.36564v-3.19453c0-0.80008 0.13337-1.37015 0.40062-1.71027 0.26726-0.34013 0.68978-0.51024 1.26691-0.51024 0.43381 0 0.74943 0.12175 0.94697 0.36526 0.20141 0.24348 0.30189 0.61245 0.30189 1.10718v3.9426h1.37137v-4.17995c0-1.56534-0.77104-2.34794-2.31261-2.34794zm-13.27568 0.11558v6.41231h1.36564v-6.41231zm5.48486 0.75944c0.39894 0 0.69492 0.11401 0.88858 0.34206 0.19754 0.22416 0.29668 0.54526 0.29668 0.96267 0 0.84257-0.39511 1.26397-1.18526 1.26397-0.38733 0-0.68561-0.10855-0.89477-0.32499-0.20528-0.21643-0.30806-0.52565-0.30806-0.92761 0-0.42902 0.10096-0.75556 0.30237-0.97974 0.20529-0.22417 0.50538-0.33636 0.90046-0.33636zm-15.57642 0.15682c0.4338 0 0.77455 0.13727 1.02244 0.4117 0.24788 0.27053 0.37578 0.6705 0.38354 1.20001h-2.91687c0.0504-0.52563 0.20519-0.9256 0.4647-1.20001 0.26339-0.27443 0.61238-0.4117 1.04619-0.4117zm15.06519 5.47284h1.03384c0.54226 0 0.91225 0.0579 1.10979 0.17387 0.20141 0.1198 0.30237 0.31863 0.30237 0.59693 0 0.35171-0.18226 0.63403-0.54635 0.84662-0.36409 0.21255-0.91816 0.31882-1.66184 0.31882-0.48028 0-0.85392-0.0793-1.12118-0.23783-0.26338-0.15847-0.39493-0.3842-0.39493-0.67794 0-0.31306 0.1142-0.56253 0.34272-0.74807 0.2324-0.18166 0.54438-0.2724 0.93558-0.2724z" stroke-width=".242798"/>
  </g>
 </g>
</svg>
