<?xml version="1.0" encoding="UTF-8"?>
<svg width="18.871918mm" height="18.871918mm" version="1.1" viewBox="0 0 18.871917 18.871917" xmlns="http://www.w3.org/2000/svg">

 <g transform="translate(-96.663642,-92.324997)">
  <g transform="translate(-.21344341 -27.03416)">
   <g transform="matrix(.20030229 0 0 .20030229 89.546602 107.52311)" fill="#fff" stroke-width=".242514">
    <path d="m88.909063 85.345024-0.16862 2.175517 0.425345 1.869538-2.355511 0.97573-1.020741-1.622756-1.657799-1.419093-5.112213 5.112213 1.419093 1.657799 1.622756 1.02074-0.975729 2.355512-1.869538-0.425345-2.175518 0.16862v6.502401c0.559867-0.33445 1.221735-0.5087 1.930166-0.5087 0.995325 0 1.901381 0.33157 2.538343 0.99848 0.63929 0.66936 0.940201 1.59615 0.940201 2.63023v1.20214l0.07484-0.0469v-4.1805l-0.553222-1.33574-2.863748 0.65175-0.593988-0.0464v-4.503548l0.593988-0.04593 2.863748 0.651271 1.926844-4.651801-2.485766-1.564019-0.387464-0.452361 3.184884-3.184884 0.452361 0.387464 1.564019 2.485766 4.652286-1.92733-0.651755-2.863262 0.04593-0.593989h4.504037l0.04593 0.593989-0.651756 2.863262 4.651825 1.92733 1.564019-2.485766 0.45283-0.387464 3.1844 3.184884-0.38744 0.452361-2.48531 1.564019 1.92687 4.651801 0.6058-0.137821 2.25746-0.51345 0.59397 0.04593v4.503548l-0.59397 0.0464-2.86326-0.65175-0.30836 0.74413c0.88401 0.057 1.68193 0.38302 2.25841 0.98664 0.0837 0.0876 0.16084 0.18045 0.23303 0.27661l0.57124 0.12977 2.17598-0.16862v-7.229941l-2.17598-0.16862-1.86907 0.425345-0.97573-2.355512 1.62229-1.02074 1.41956-1.657799-5.11222-5.112213-1.6578 1.419093-1.021225 1.622756-2.355511-0.97573 0.425344-1.869538-0.168619-2.175517zm3.614982 10.129215c-2.94836 0-5.354242 2.405881-5.354266 5.354241 0 0.92483 0.236766 1.79623 0.652725 2.5568l0.170512 0.037-0.0228 0.21503c0.05512 0.0889 0.113302 0.17561 0.173373 0.261l0.09805-0.0512c0.408272-0.21315 0.850908-0.37059 1.320075-0.47603 8e-3 -2e-3 0.01576-3e-3 0.02377-5e-3 -0.586592-0.67955-0.942578-1.56431-0.942578-2.53786 0-2.152404 1.728759-3.881163 3.881165-3.881163 2.152382 0 3.881626 1.728759 3.881626 3.881163 0 0.37144-0.05481 0.72905-0.151086 1.06857h1.24475v0.9028c0.243484-0.61087 0.378928-1.2756 0.378928-1.97137 0-2.948358-2.405906-5.35424-5.354242-5.35424zm1.2585 9.025561c-0.02786 9e-3 -0.05471 0.0209-0.08289 0.0299 0.02854 0.0518 0.05706 0.10363 0.08289 0.15725zm-1.52706 0.28374c0.0024 2e-3 0.0024 5e-3 0.0044 7e-3 0.0024 2e-3 0.0027 2e-3 0.0051 3e-3zm10.229135 0.92837c-0.2318 0-0.34294 0.0503-0.44667 0.1383h0.88009c-0.0919-0.0891-0.18863-0.1383-0.43342-0.1383zm-11.646821 0.0114c-0.139591 0-0.272925 0.0119-0.402597 0.0336 0.08692 0.0371 0.175119 0.0717 0.264291 0.1042 0.06104-4e-3 0.120917-8e-3 0.184262-0.0104l0.317353-0.01c-0.0024-3e-3 -0.0051-0.034-0.0075-0.036l-0.0049-5e-3 -0.0046-6e-3c-0.01358-0.0145-0.0695-0.0706-0.346261-0.0706zm3.212845 0.10467c0.0034 0.0434 0.01358 0.0839 0.02328 0.12458 0.122251-0.0371 0.242053-0.0791 0.360448-0.12458zm-14.250056 2.48055-0.391248 0.45661c0.280686-7e-3 0.540612-0.0316 0.771606-0.081 0.270476-0.0607 0.576528-0.16345 0.914156-0.31311l0.141167-0.0625zm23.228282 0 0.60723 0.38225 3e-3 4e-3c0.0184-4e-3 0.0381-7e-3 0.0564-0.0104 0.27045-0.0607 0.57653-0.16346 0.91416-0.31311l0.14114-0.0625zm2.62074 0.46941v0.82227l0.37942-0.37941zm-19.423816 0.67732-0.866331 1.37646v0.37514h-0.235869l-0.461819 0.73371-0.452361 0.38744-1.121141-1.12115h-0.564135v-0.56365l-0.3936-0.39362v0.36661l-0.41967 0.1999c-0.26029 0.12407-0.526206 0.22324-0.796221 0.29982l3.21709 3.21758 1.657799-1.41956 1.020741-1.62229 2.355511 0.97527-0.425345 1.86953 0.16862 2.17598h7.22994l0.168619-2.17598-0.425344-1.86953 2.355511-0.97527 1.021225 1.62229 1.657796 1.41956 3.12094-3.12142c-0.39605 0.076-0.82748 0.11083-1.29876 0.11083-0.28449 0-0.56132-0.0226-0.82748-0.0673l-1.07237 1.07235-0.45283-0.38744-0.993744-1.57918v0.47554l-0.442393 0.19232c-0.225247 0.0981-0.468027 0.1612-0.742213 0.21031-0.283523 0.0554-0.575607 0.0834-0.873898 0.0834-0.657892 0-1.274798-0.16234-1.747336-0.52766l-1.416256 0.58688 0.651756 2.86326-0.04593 0.59397h-4.504037l-0.04593-0.59397 0.651755-2.86326-0.259102-0.10753c-0.217607 0.031-0.443824 0.0483-0.683015 0.0483-0.762536 0-1.474968-0.22413-1.987473-0.71428l-0.0048-4e-3c-0.188579-0.18232-0.339374-0.39454-0.455659-0.6276zm-17.940799 0.3022-4.625295 2.67051 2.239469 2.23139-0.924123 1.60003-3.051307-0.82323v6.384l3.051307-0.8237 0.924123 1.60001-2.239469 2.23142 5.528561 3.19199 0.812785-3.05463h1.84776l0.812785 3.05463 5.5281-3.19199-2.239008-2.23142 0.923638-1.60001 3.051331 0.8237v-6.384l-3.051331 0.82323-0.923638-1.60003 2.239008-2.23139-3.615928-2.0879c-0.579026 0.63352-1.404785 0.98284-2.299612 0.98284-0.05602 0-0.110586-5e-3 -0.165782-8e-3l-0.259563 0.97619h-0.728487v1.4731h1.860517l0.609146-2.29061 2.198241 1.26939-1.679116 1.67249 2.055667 3.56146 0.546602-0.14733 1.742121-0.47033v2.53834l-2.288723-0.61765-2.055667 3.56146 1.679116 1.67341-2.198241 1.26847-0.609146-2.29061h-4.11182l-0.609146 2.29061-2.198241-1.26847 1.679116-1.67341-2.056152-3.56146-2.288723 0.61765v-2.53834l2.288723 0.61766 2.056152-3.56146-1.679116-1.67249 2.198241-1.26939 0.02512 0.0942zm2.639688 5.31684c-1.953908 0-3.553383 1.59994-3.553383 3.55387 0 1.95391 1.599475 3.55339 3.553383 3.55339 1.953933 0 3.553869-1.59948 3.553869-3.55339 0-1.95393-1.599936-3.55387-3.553869-3.55387zm0 1.47308c1.157979 0 2.080792 0.92281 2.080792 2.08079s-0.922813 2.08077-2.080792 2.08077c-1.157954 0-2.080791-0.92279-2.080791-2.08077s0.922837-2.08079 2.080791-2.08079z" opacity=".433"/>
    <path d="m63.392087 101.86246c-1.279333 0-2.264763 0.37483-2.956582 1.12449-0.687987 0.74966-1.032114 1.82392-1.032114 3.22276 0 1.39885 0.342308 2.47908 1.026415 3.24033 0.687987 0.75737 1.671574 1.13629 2.950907 1.13629 1.26386 0 2.239711-0.38256 2.927698-1.14767 0.691819-0.76513 1.037789-1.83757 1.037789-3.21709 0-1.38339-0.344151-2.45586-1.032114-3.21711s-1.662019-1.142-2.921999-1.142zm32.529987 0.77112-0.46371 1.35658-0.93928 0.49829v0.60296h0.875329v3.45439c0 1.36021 0.645401 2.04053 1.936326 2.04053 0.2551 0 0.500767-0.0233 0.736538-0.0696 0.239628-0.0425 0.434706-0.0968 0.585453-0.16246v-1.02596c-0.332414 0.10433-0.664682 0.1563-0.997071 0.1563-0.266668 0-0.483184-0.077-0.649379-0.2316-0.162339-0.15843-0.243459-0.40194-0.243459-0.7304v-3.43118h1.825958v-1.03211h-1.825958v-1.42572zm-32.529987 0.4173c0.823237 0 1.441768 0.26858 1.855326 0.8057 0.417415 0.53712 0.626171 1.32551 0.626171 2.36499 0 1.05491-0.210575 1.84876-0.63187 2.38202-0.417414 0.53326-1.037764 0.80001-1.861001 0.80001-0.827117 0-1.451566-0.26856-1.872861-0.80568-0.42127-0.541-0.631845-1.33303-0.631845-2.37635 0-1.03948 0.210575-1.82787 0.631845-2.36499 0.425151-0.53712 1.053261-0.8057 1.884235-0.8057zm8.905272 0.89286c-0.850301 0-1.488427 0.32417-1.913578 0.97335h-0.06965c-0.09662-0.45207-0.159962-0.73799-0.190883-0.85779h-1.101715v9.2629h1.362248v-2.62598c0-0.11592-0.02689-0.44421-0.081-0.98521h0.081c0.448335 0.58351 1.078701 0.87532 1.89037 0.87532 0.800053 0 1.425835-0.29363 1.87805-0.881 0.456071-0.58737 0.684447-1.40493 0.684447-2.45213 0-1.04722-0.224253-1.86066-0.672612-2.44029-0.444455-0.57963-1.066624-0.86917-1.866677-0.86917zm6.67291 0c-0.912142 0-1.62911 0.29909-2.150878 0.89805-0.521792 0.59896-0.78298 1.42198-0.78298 2.46918 0 1.02016 0.280322 1.82222 0.840747 2.40573 0.564305 0.57964 1.345078 0.86963 2.342246 0.86963 0.436767 0 0.82508-0.0328 1.165205-0.0985 0.340126-0.0657 0.676517-0.17789 1.008906-0.33632v-1.10742c-0.374902 0.16617-0.72679 0.2861-1.055323 0.35951-0.324653 0.0696-0.676055 0.1042-1.054837 0.1042-0.575873 0-1.022584-0.16595-1.339501-0.49829-0.316941-0.33615-0.485124-0.8154-0.504452-1.43755h4.272873v-0.73605c0-0.90038-0.245206-1.6076-0.736054-2.12154-0.490871-0.51393-1.159506-0.77063-2.005952-0.77063zm7.542565 0c-0.394231 0-0.763434 0.1117-1.107415 0.33581-0.340126 0.22413-0.616349 0.52785-0.828912 0.91037h-0.06963l-0.179993-1.13062h-1.066672v6.41099h1.362223v-3.3502c0-0.56804 0.168208-1.02994 0.504453-1.38546 0.340125-0.3555 0.782713-0.53334 1.327665-0.53334 0.208708 0 0.409727 0.0233 0.602987 0.0696l0.133552-1.26939c-0.177787-0.0387-0.403858-0.0578-0.678262-0.0578zm4.382756 0c-0.367166 0-0.757322 0.0483-1.170881 0.14493-0.413558 0.0928-0.79462 0.22951-1.142458 0.41113l0.440963 0.97386c0.278285-0.13139 0.568185-0.24537 0.869654-0.34199 0.301469-0.0966 0.616446-0.14493 0.944931-0.14493 0.40199 0 0.697323 0.10259 0.886702 0.30739 0.19326 0.20094 0.289877 0.50598 0.289877 0.91558v0.342l-1.107415 0.035c-1.004904 0.0309-1.752404 0.21421-2.243251 0.55039-0.490848 0.33619-0.736539 0.83504-0.736539 1.49582 0 0.62214 0.175944 1.10319 0.527662 1.44325 0.355573 0.34005 0.848288 0.51012 1.47829 0.51012 0.490848 0 0.892863-0.0698 1.205924-0.20887 0.313085-0.14299 0.6244-0.40973 0.933581-0.80003h0.04644l0.272343 0.89286h0.973838v-4.31837c0-0.76125-0.208756-1.3198-0.62617-1.67533-0.413559-0.3555-1.027967-0.53285-1.843492-0.53285zm11.58903 0c-0.91215 0-1.62911 0.29909-2.15088 0.89805s-0.782497 1.42198-0.782497 2.46918c0 1.02016 0.280322 1.82222 0.840747 2.40573 0.5643 0.57964 1.34508 0.86963 2.34225 0.86963 0.43676 0 0.82508-0.0328 1.1652-0.0985 0.34013-0.0657 0.67652-0.17789 1.00891-0.33632v-1.10742c-0.37491 0.16617-0.72679 0.2861-1.05533 0.35951-0.32465 0.0696-0.67654 0.1042-1.05529 0.1042-0.5759 0-1.02213-0.16595-1.33904-0.49829-0.31695-0.33615-0.48513-0.8154-0.50446-1.43755h4.27288v-0.73605c0-0.90038-0.24567-1.6076-0.73654-2.12154-0.49085-0.51393-1.15951-0.77063-2.00595-0.77063zm-23.514351 1.03163c0.432887 0 0.772892 0.13724 1.020256 0.41162 0.247364 0.27045 0.374998 0.67038 0.382735 1.19976h-2.91065c0.05025-0.52553 0.204755-0.92541 0.463711-1.19976 0.262836-0.27441 0.611061-0.41162 1.043948-0.41162zm23.514351 0c0.43288 0 0.77337 0.13724 1.02074 0.41162 0.24736 0.27045 0.375 0.67038 0.38273 1.19976h-2.91065c0.0503-0.52553 0.20476-0.92541 0.46371-1.19976 0.26281-0.27441 0.6106-0.41162 1.04347-0.41162zm-30.541088 0.081c0.490848 0 0.861869 0.18557 1.113089 0.55654 0.255101 0.3671 0.382735 0.91018 0.382735 1.62892 0 0.71488-0.127634 1.26522-0.382735 1.65164-0.255076 0.38642-0.618337 0.57978-1.08988 0.57978-0.560425 0-0.964259-0.17374-1.211623-0.52151-0.247364-0.35164-0.371337-0.91798-0.371337-1.69854v-0.20274c0-0.69555 0.123973-1.20168 0.371337-1.51855 0.25122-0.31687 0.647317-0.47554 1.188414-0.47554zm20.059472 2.35359v0.55609c0 0.49848-0.150868 0.88699-0.452336 1.1652-0.297613 0.27436-0.693687 0.41162-1.188415 0.41162-0.340125 0-0.595371-0.0775-0.765421-0.23211-0.170075-0.15843-0.254834-0.38048-0.254834-0.66643 0-0.39415 0.144951-0.68597 0.434803-0.87533 0.293781-0.19321 0.761396-0.30127 1.40299-0.32445z"/>
   </g>
  </g>
 </g>
</svg>
