<?xml version="1.0" encoding="UTF-8"?>
<!-- Created with Inkscape (http://www.inkscape.org/) -->
<svg width="18.871918mm" height="18.871918mm" version="1.1" viewBox="0 0 18.871918 18.871918" xmlns="http://www.w3.org/2000/svg" xmlns:xlink="http://www.w3.org/1999/xlink">
 <g transform="translate(-96.663642,-92.324997)">
  <g transform="translate(3.4213852,-34.051888)">
   <g transform="matrix(.14275057 0 0 .14275057 99.188225 110.46956)" fill="#fff">
    <path transform="scale(.26458333)" d="m174.45703 558.01172-26.73828 15.85547-8.95313 26.71679 16.13868 19.71094-11.16797 35.06055c2.68965 0.61149 5.05242 1.81112 6.82812 3.76562 0.0181 0.0189 0.0309 0.0417 0.0488 0.0606l10.11719-31.77148 3.78906 4.62695 4.25781-1.42383-9.94336 31.22266c0.25716-0.34318 0.50699-0.69254 0.78907-1.01758 2.43921-2.81095 5.7001-4.64411 9.38086-5.49609l8.83203-27.74024 25.9414-8.67773 7.90625-24.81641-13.95898-28.08203-2.89453 9.08008-7.86133 24.69336-14.57227 5.22656-8.87304-12.66016zm-155.078124 6.1543-3.736328 0.96093-65.18164 16.80469 19.0625 73.65625c2.902502 0.4687 5.502505 1.61823 7.55664 3.3457 0.346609-0.28686 0.699836-0.56653 1.060547-0.83593l-18.279297-70.63672 53.97461-13.91602 4.287109 16.56446-25.4453126 6.56054 1.9257812 7.47852 25.4550784-6.5625 4.283203 16.55273-25.4492189 6.56055 1.9277344 7.47656 25.4550785-6.5625 4.287109 16.56445-35.8789062 9.24805 1.9296874 7.45508 35.8789068-9.24805 3.21289 12.41407c1.256771 0.86789 2.400079 1.90519 3.357422 3.14257 0.09112 0.11697 0.175652 0.23822 0.263672 0.35743l-0.01172 2e-3c1.521101 2.05893 2.579414 4.45045 3.240235 7.11914l0.01367-4e-3c0.57838 2.33804 0.853508 4.88813 0.861329 7.61524 0.0083 2.87403-0.295934 5.55178-0.935547 8.0039l0.503906 1.94922-1.207031 0.31055c-0.67493 1.79713-1.569209 3.44516-2.707032 4.91797l-2e-3 0.0137c-3.028014 3.94065-7.738405 6.11811-12.867187 6.13281-2.129185 8e-3 -4.145987-0.43554-6.042969-1.13086l0.0098 3.59375 23.875-6.15625-0.0098-3.63281 0.0039 0.0117-0.08984-31.13281zm141.568364 10.83203-5.94141 18.65429 14.45312 20.60157 23.71094-8.4961 6.12696-19.24414 4.08203 8.20899-5.76563 18.10742-30.49414 10.19336-19.67969-24.02735 6.6875-19.95312zm-136.542973 93.70703c-2.064529 8e-3 -2.708073 0.43089-3.183594 1.02734-0.406344 0.52902-0.959161 2.10278-1.064453 4.70899l7.859375-2.02539c-0.252401-1.13454-0.593292-1.96271-0.943359-2.4629l-0.01563-0.0195-0.01367-0.0195c-0.664244-0.97285-1.042527-1.21329-2.638672-1.20898zm114.789063 0.92187-3.01367 9.46094-2.99219-0.94922 0.0234 8.08203 0.63281 0.20118 5.71484 1.81445-0.0449-16.08008c-3e-3 -1.17456-0.15446-1.97949-0.32031-2.5293zm-157.195313 3.37305c-0.09987 0.72888-0.174653 1.53626-0.171875 2.51172l0.05078 17.7539 0.01172 3.84766-1.617188 4e-3 28.0839848 108.51953 68.9140622-17.76563-23.539062-90.95507-7.958985 0.0234 3.44336 13.31055-35.587891 9.17383 1.925781 7.47851 35.597657-9.17578 4.283203 16.55078-25.449219 6.5625 1.927734 7.47657 25.455079-6.5625 4.283203 16.55078-25.449219 6.5625 1.925781 7.47851 25.458985-6.56445 4.285156 16.5625-53.976563 13.91406-25.660156-99.16211 2e-3 -0.0137zm172.656253 1.95312c-1.4e-4 4e-3 1.3e-4 8e-3 0 0.0117l2e-3 -8e-3zm0 0.0117-0.28125 0.88477 0.0488 17.09961 2.36132 0.74805 2.32618 0.73828-18.95313 59.51367-27.58789-8.75 15.44531-48.50391-8.10156 0.0215-17.03125 53.49023 42.28906 13.4082 21.60742-67.85937c-2.51311-0.93997-4.75631-2.34736-6.61523-4.24219l-0.0254-0.0254c-3.72377-3.84756-5.50419-9.1896-5.52149-15.22656-1e-3 -0.43967 0.0238-0.86538 0.0391-1.29688z" color="#000000" opacity=".433306" stroke-linecap="square" stroke-width="3.77953" style="-inkscape-stroke:none"/>
    <g stroke-width="1.38565">
     <path d="m-18.126047 183.53657-0.03434-11.97997 1.958433-6e-3 0.03434 11.97996z"/>
     <path d="m-5.7891036 183.50121-1.933852 6e-3 -0.01602-5.58846q-0.00298-1.04067-0.397753-1.54759-0.3948051-0.51511-1.2306106-0.51271-1.1144208 3e-3 -1.6367668 0.73398-0.514172 0.72258-0.509327 2.41059l0.01295 4.51502-1.925646 6e-3 -0.02599-9.06282 1.507752-4e-3 0.273806 1.18739 0.09834-2.8e-4q0.375074-0.64842 1.086966-1.00282 0.7200812-0.35442 1.5804678-0.35688 2.0895245-6e-3 2.7737401 1.41786l0.1311106-3.8e-4q0.3995945-0.67308 1.1278017-1.0521 0.7282071-0.37903 1.6705428-0.38173 1.6224501-5e-3 2.36227553 0.81266 0.74803256 0.81729 0.75284364 2.4971l0.01693617 5.90805-1.92564614 6e-3 -0.01602-5.58847q-0.00298-1.04067-0.4059594-1.54756-0.3948051-0.51511-1.2306113-0.51271-1.1226078 3e-3 -1.6450132 0.70942-0.5142512 0.69799-0.5100905 2.14837z"/>
     <path d="m6.9989661 183.62844q-1.7207929 5e-3 -2.6748533-1.22967l-0.114736 3.3e-4q0.1180084 1.14687 0.1187248 1.39269l0.010631 3.71199-1.9256461 6e-3 -0.037535-13.09438 1.5569139-4e-3q0.066285 0.25383 0.2738858 1.21197l0.098344-2.8e-4q0.8974188-1.37922 2.7001411-1.38438 1.6962118-5e-3 2.6420716 1.22157 0.9540471 1.22641 0.9604121 3.44705 0.0064 2.22064-0.9569827 3.46893-0.9551589 1.24827-2.6513516 1.25313zm-0.4894727-7.81596q-1.1471889 3e-3 -1.6778934 0.67675-0.5224987 0.67342-0.5182778 2.14839l8.235e-4 0.2868q0.00475 1.65523 0.5313177 2.3994 0.5265331 0.73598 1.7146962 0.73258 0.9997043-3e-3 1.5381777-0.82385 0.5384741-0.82097 0.5341276-2.3369-0.00438-1.52412-0.5474325-2.30103-0.5348797-0.78512-1.575539-0.78214z"/>
     <path d="m14.566379 183.44287-1.925646 6e-3 -0.03654-12.75023 1.925645-6e-3z"/>
     <path d="m21.061294 183.58814q-2.114105 6e-3 -3.313999-1.21965-1.1917-1.23392-1.197911-3.3972-0.0064-2.22063 1.096219-3.49391 1.102584-1.27328 3.036417-1.27882 1.794535-5e-3 2.838333 1.08171 1.043797 1.08684 1.049259 2.9961l3e-3 1.04067-6.039139 0.0173q0.04474 1.31915 0.718721 2.03012 0.673945 0.70278 1.894896 0.69928 0.803019-2e-3 1.490921-0.15177 0.696057-0.15768 1.489899-0.51232l0.0045 1.5651q-0.703752 0.33799-1.424439 0.47935-0.720704 0.14137-1.646646 0.14402zm-0.375081-7.93101q-0.917754 3e-3 -1.473305 0.58602-0.547345 0.58336-0.650676 1.69809l4.113513-0.0118q-0.01961-1.12256-0.545732-1.69464-0.526083-0.58029-1.443838-0.57766z"/>
     <path d="m34.192585 183.38662-1.933833 6e-3 -0.01602-5.58846q-3e-3 -1.04067-0.397753-1.54759-0.394806-0.51511-1.230612-0.51272-1.11442 3e-3 -1.636765 0.73399-0.514172 0.72257-0.509328 2.41058l0.01295 4.51502-1.925645 6e-3 -0.02599-9.06281 1.507752-4e-3 0.273807 1.18739 0.09832-2.8e-4q0.375073-0.64842 1.086966-1.00282 0.720081-0.35442 1.580486-0.35689 2.089525-6e-3 2.77374 1.41786l0.131111-3.7e-4q0.399575-0.67308 1.127783-1.0521 0.728207-0.37903 1.670542-0.38173 1.62247-5e-3 2.362295 0.81266 0.748033 0.81728 0.752844 2.4971l0.01694 5.90804-1.925646 6e-3 -0.01602-5.58846q-3e-3 -1.04067-0.405959-1.54756-0.394805-0.51511-1.230611-0.51272-1.122608 3e-3 -1.645033 0.70943-0.514232 0.69799-0.510071 2.14836z"/>
     <path d="m46.341514 183.51568q-2.114105 6e-3 -3.31398-1.21965-1.19172-1.23392-1.197911-3.3972-0.0064-2.22063 1.096219-3.49391 1.102565-1.27327 3.036417-1.27882 1.794535-5e-3 2.838314 1.08171 1.043797 1.08685 1.049278 2.9961l3e-3 1.04067-6.039159 0.0173q0.04476 1.31915 0.718721 2.03013 0.673945 0.70278 1.894896 0.69928 0.803038-2e-3 1.490922-0.15177 0.696075-0.15769 1.489899-0.51232l0.0045 1.5651q-0.703753 0.33798-1.42444 0.47934-0.720685 0.14137-1.646646 0.14403zm-0.37508-7.931q-0.917755 3e-3 -1.473287 0.58601-0.547364 0.58337-0.650695 1.69809l4.113513-0.0118q-0.01961-1.12256-0.545732-1.69464-0.526102-0.58029-1.443857-0.57765z"/>
     <path d="m59.808789 183.3132-1.933833 6e-3 -0.01597-5.57208q-3e-3 -1.04886-0.430586-1.56388-0.419386-0.51503-1.337141-0.5124-1.220951 4e-3 -1.784284 0.72621-0.563334 0.72271-0.558475 2.41892l0.01295 4.51502-1.925646 6e-3 -0.02597-9.06282 1.507734-4e-3 0.273806 1.18739 0.09834-2.9e-4q0.407842-0.64851 1.160709-1.00303 0.752849-0.35451 1.670603-0.35714 3.261314-9e-3 3.27083 3.30932z"/>
     <path d="m65.643698 181.90344q0.704695-2e-3 1.408772-0.22528l0.0042 1.45038q-0.319184 0.14022-0.826968 0.23181-0.499565 0.0998-1.040382 0.10131-2.736871 8e-3 -2.745146-2.87653l-0.014-4.88376-1.237324 4e-3 -0.0024-0.85221 1.325443-0.7085 0.650039-1.91933 1.188163-3e-3 0.0058 2.01579 2.581199-7e-3 0.0042 1.45858-2.581181 7e-3 0.01389 4.85099q2e-3 0.69651 0.347041 1.03152 0.353306 0.32675 0.918704 0.32513z"/>
    </g>
   </g>
  </g>
 </g>
</svg>
